<svg width="26" height="26" viewBox="0 0 26 26" fill="none" xmlns="http://www.w3.org/2000/svg">
<path d="M13.5077 20.571L19.3226 24.263C20.0725 24.7361 20.9956 24.0323 20.7763 23.1669L19.0919 16.5444C19.0463 16.3608 19.0535 16.1681 19.1127 15.9885C19.1719 15.8088 19.2807 15.6496 19.4264 15.5291L24.6414 11.1794C25.3222 10.614 24.976 9.47181 24.0876 9.41413L17.2804 8.9757C17.0947 8.96489 16.9161 8.90021 16.7666 8.78957C16.617 8.67893 16.5029 8.52711 16.4382 8.35267L13.8999 1.96084C13.8327 1.77612 13.7103 1.61656 13.5493 1.5038C13.3883 1.39105 13.1966 1.33057 13 1.33057C12.8034 1.33057 12.6117 1.39105 12.4507 1.5038C12.2897 1.61656 12.1673 1.77612 12.1001 1.96084L9.56179 8.35267C9.4971 8.52711 9.383 8.67893 9.23342 8.78957C9.08385 8.90021 8.90529 8.96489 8.71955 8.9757L1.91237 9.41413C1.02397 9.47181 0.677844 10.614 1.35856 11.1794L6.57356 15.5291C6.71932 15.6496 6.82806 15.8088 6.88726 15.9885C6.94645 16.1681 6.9537 16.3608 6.90815 16.5444L5.35057 22.6824C5.08521 23.7208 6.19282 24.563 7.08121 23.9977L12.4923 20.571C12.6441 20.4745 12.8202 20.4233 13 20.4233C13.1798 20.4233 13.3559 20.4745 13.5077 20.571V20.571Z" stroke="#F8D57E" stroke-width="2" stroke-linecap="round" stroke-linejoin="round"/>
</svg>
