<svg width="26" height="26" viewBox="0 0 26 26" fill="none" xmlns="http://www.w3.org/2000/svg">
<path d="M13.5077 20.4863L19.3226 24.1783C20.0725 24.6513 20.9956 23.9475 20.7763 23.0822L19.0919 16.4596C19.0463 16.2761 19.0535 16.0834 19.1127 15.9037C19.1719 15.7241 19.2807 15.5649 19.4264 15.4443L24.6414 11.0947C25.3222 10.5293 24.976 9.3871 24.0876 9.32941L17.2804 8.89098C17.0947 8.88017 16.9161 8.8155 16.7666 8.70485C16.617 8.59421 16.5029 8.44239 16.4382 8.26795L13.8999 1.87612C13.8327 1.69141 13.7103 1.53184 13.5493 1.41909C13.3883 1.30633 13.1966 1.24585 13 1.24585C12.8034 1.24585 12.6117 1.30633 12.4507 1.41909C12.2897 1.53184 12.1673 1.69141 12.1001 1.87612L9.56179 8.26795C9.4971 8.44239 9.383 8.59421 9.23343 8.70485C9.08385 8.8155 8.90529 8.88017 8.71955 8.89098L1.91237 9.32941C1.02397 9.3871 0.677844 10.5293 1.35856 11.0947L6.57356 15.4443C6.71932 15.5649 6.82806 15.7241 6.88726 15.9037C6.94645 16.0834 6.9537 16.2761 6.90815 16.4596L5.35057 22.5976C5.08521 23.636 6.19282 24.4783 7.08121 23.9129L12.4923 20.4863C12.6441 20.3898 12.8202 20.3385 13 20.3385C13.1798 20.3385 13.3559 20.3898 13.5077 20.4863Z" fill="#F8D57E" stroke="#F8D57E" stroke-width="2" stroke-linecap="round" stroke-linejoin="round"/>
</svg>
